<?xml version="1.0" standalone="no"?>
<!DOCTYPE svg PUBLIC "-//W3C//DTD SVG 20010904//EN"
 "http://www.w3.org/TR/2001/REC-SVG-20010904/DTD/svg10.dtd">
<svg version="1.0" xmlns="http://www.w3.org/2000/svg"
 width="1057.000000pt" height="494.000000pt" viewBox="0 0 1057.000000 494.000000"
 preserveAspectRatio="xMidYMid meet">

<g transform="translate(0.000000,494.000000) scale(0.100000,-0.100000)"
fill="#000000" stroke="none">
<path d="M2550 4910 c-560 -56 -1072 -292 -1527 -706 -45 -41 -144 -148 -220
-238 -76 -90 -176 -208 -221 -262 -244 -289 -411 -634 -491 -1014 -46 -217
-55 -307 -54 -540 1 -195 4 -246 28 -384 55 -327 169 -636 323 -871 114 -174
330 -357 521 -440 144 -63 254 -86 417 -86 78 1 166 6 195 12 311 63 566 234
784 524 65 87 120 208 161 360 98 355 -1 759 -241 983 -298 279 -672 179 -800
-214 -47 -145 -50 -364 -5 -518 10 -38 21 -71 24 -73 2 -2 10 13 16 34 58 178
231 389 336 409 111 21 194 -125 194 -339 0 -150 -49 -266 -153 -365 -64 -60
-94 -76 -170 -92 -97 -20 -147 -7 -230 59 -40 32 -102 90 -138 129 -377 407
-331 1066 109 1585 293 346 753 582 1199 615 124 9 319 -3 393 -24 156 -45
281 -148 311 -256 11 -40 23 -464 13 -479 -2 -4 -21 2 -41 12 -78 40 -178 17
-240 -55 -58 -66 -73 -127 -73 -304 l0 -157 -46 3 c-85 7 -173 -41 -205 -112
-17 -37 -18 -69 -18 -326 1 -157 4 -422 8 -590 6 -290 8 -307 29 -348 28 -53
73 -82 130 -82 59 0 104 21 138 66 l29 37 3 194 c2 106 5 193 7 193 2 0 26
-12 55 -27 62 -32 160 -37 202 -9 25 16 26 16 32 -6 3 -13 6 -38 6 -55 0 -55
40 -184 86 -279 107 -219 308 -422 521 -524 l52 -25 3 -140 3 -140 1270 0
1270 0 3 141 c2 138 3 142 25 148 12 3 60 28 106 56 299 181 501 477 536 782
l6 58 32 -17 c52 -27 144 -22 200 10 25 15 48 27 51 27 3 0 6 -80 6 -177 0
-198 11 -241 73 -285 47 -34 132 -37 177 -6 70 47 74 67 81 398 6 267 12 835
10 902 -2 70 -128 145 -223 134 l-48 -5 0 159 c0 179 -15 240 -73 306 -62 72
-162 95 -240 55 -20 -10 -37 -16 -38 -12 0 3 -1 101 -1 216 -2 267 7 301 92
387 64 63 167 119 257 138 150 32 389 28 573 -10 265 -55 546 -189 765 -363
86 -69 257 -250 322 -341 245 -345 330 -755 227 -1096 -47 -152 -117 -271
-233 -393 -100 -104 -182 -163 -242 -172 -51 -8 -147 8 -193 32 -87 45 -186
177 -220 292 -43 147 3 392 85 454 32 23 87 31 119 18 103 -45 240 -220 306
-390 l21 -55 16 55 c34 116 40 158 39 284 0 99 -5 149 -21 210 -76 289 -281
453 -521 417 -217 -33 -415 -225 -513 -499 -39 -108 -58 -224 -58 -363 -1
-142 23 -256 89 -429 42 -111 62 -147 147 -256 178 -228 420 -392 672 -456
100 -25 136 -29 257 -30 78 0 165 4 195 10 324 64 617 279 795 584 419 714
417 1671 -2 2407 -66 114 -134 214 -202 295 -27 33 -76 92 -107 130 -294 359
-461 517 -738 700 -412 273 -873 419 -1315 418 -211 0 -325 -18 -521 -83 -210
-69 -343 -136 -549 -275 -246 -165 -412 -306 -582 -493 l-57 -62 -405 0 -406
0 0 205 c0 187 2 206 18 212 63 23 112 93 112 160 -1 109 -97 189 -205 169
-46 -9 -110 -67 -125 -112 -27 -80 17 -174 99 -212 l36 -17 1 -190 c0 -105 -4
-196 -9 -202 -7 -10 -103 -13 -421 -12 l-411 0 -50 60 c-57 69 -224 226 -336
317 -115 93 -405 285 -505 335 -174 86 -423 169 -562 186 -122 16 -315 21
-412 11z m2794 -245 c64 -42 52 -151 -20 -181 -74 -31 -144 15 -144 95 1 94
84 138 164 86z m-3122 -661 c336 -42 648 -150 878 -302 87 -58 233 -189 225
-202 -2 -4 -31 -13 -64 -19 -57 -11 -66 -10 -183 24 -107 32 -141 37 -264 42
-523 21 -1018 -182 -1389 -569 -127 -132 -219 -261 -294 -413 -104 -212 -142
-356 -148 -575 -6 -178 14 -300 68 -438 53 -135 192 -331 308 -435 170 -153
406 -232 620 -207 110 13 183 31 253 65 26 13 48 20 48 15 0 -18 -159 -187
-241 -255 -112 -93 -177 -135 -304 -196 -144 -69 -248 -93 -415 -93 -168 0
-274 24 -411 93 -242 121 -434 327 -574 615 -99 201 -171 464 -195 706 -13
127 -12 379 0 515 26 274 118 601 240 851 111 227 213 369 329 458 167 129
605 284 901 320 162 19 460 20 612 0z m6703 1 c213 -25 445 -92 705 -202 133
-57 197 -99 285 -188 92 -92 159 -194 255 -390 112 -228 173 -420 222 -695 20
-110 23 -159 23 -410 0 -256 -2 -298 -23 -414 -102 -563 -377 -989 -758 -1172
-143 -68 -231 -88 -399 -88 -111 0 -158 5 -230 22 -161 40 -358 149 -524 291
-56 47 -211 219 -211 233 0 5 22 -3 48 -16 105 -53 300 -83 429 -65 100 13
228 58 312 108 171 102 365 337 442 536 94 242 93 562 -3 833 -145 412 -477
770 -903 976 -292 142 -544 195 -860 183 -122 -4 -155 -10 -261 -41 -114 -33
-126 -35 -180 -25 -33 6 -63 14 -67 18 -12 12 129 139 226 204 212 143 545
259 862 300 148 20 448 21 610 2z m-2820 -257 c59 -100 110 -189 112 -198 4
-13 -93 -15 -941 -15 -521 0 -946 4 -946 8 0 5 51 94 112 198 l113 189 721 0
721 0 108 -182z m201 -340 c16 -29 30 -55 32 -58 2 -5 -2111 -1 -2116 5 -2 1
9 26 25 54 l28 51 1001 0 1001 0 29 -52z m299 -209 c116 -27 233 -55 260 -62
l50 -14 8 -729 c8 -758 6 -892 -14 -984 -58 -270 -347 -526 -640 -569 -41 -6
-137 -10 -214 -8 -138 2 -141 1 -206 -29 -158 -75 -251 -227 -236 -386 l5 -58
-341 0 -342 0 -1 88 c-1 124 -27 187 -113 272 -99 97 -154 116 -335 113 -209
-4 -332 23 -468 102 -80 47 -99 62 -176 138 -131 128 -198 263 -211 426 -7 83
-4 1589 3 1616 1 5 117 37 256 70 l253 61 1126 1 1126 1 210 -49z m-3055 -841
c0 -811 5 -927 44 -1029 90 -238 291 -431 546 -522 81 -28 95 -30 290 -36 198
-6 207 -7 262 -34 114 -56 178 -165 178 -303 l0 -75 -407 3 -408 3 -94 49
c-209 110 -374 277 -475 481 -88 177 -81 97 -84 937 l-2 748 34 67 c62 126 91
300 67 405 -10 42 -7 48 26 48 l23 0 0 -742z m3500 702 c-20 -139 6 -294 71
-422 l29 -57 0 -523 c1 -288 5 -568 9 -623 12 -141 -2 -307 -34 -400 -91 -273
-306 -514 -570 -641 l-60 -29 -409 -3 -408 -3 4 88 c5 106 28 164 90 225 24
24 66 55 93 68 47 23 64 25 255 31 197 5 209 7 292 36 312 111 551 389 578
673 5 52 10 438 10 858 l0 763 28 -3 c25 -3 27 -6 22 -38z m-3785 -392 c53
-46 55 -77 55 -750 l0 -617 -26 -20 c-60 -48 -150 -35 -208 29 l-36 41 2 607
c3 593 3 608 24 647 27 52 76 85 125 85 25 0 47 -8 64 -22z m4155 0 c19 -13
45 -45 59 -73 l26 -49 0 -596 c0 -580 -1 -596 -20 -621 -11 -15 -35 -37 -54
-50 -45 -31 -128 -33 -168 -3 l-28 21 0 639 c0 637 0 639 22 687 32 69 99 88
163 45z m-5388 -366 c35 -16 79 -44 98 -60 l35 -31 -29 -1 c-40 0 -139 -27
-201 -55 -166 -73 -369 -275 -452 -450 -23 -48 -33 -28 -33 65 0 264 132 496
315 557 68 22 193 11 267 -25z m6799 5 c160 -80 252 -253 266 -499 8 -150 2
-158 -51 -65 -100 175 -250 323 -412 405 -51 26 -177 62 -219 62 l-30 1 35 30
c39 33 123 77 173 90 18 4 66 7 108 5 59 -2 89 -9 130 -29z m-2331 -2112 l0
-85 -1225 0 -1225 0 0 85 0 85 1225 0 1225 0 0 -85z"/>
<path d="M978 2983 c-159 -189 -242 -361 -292 -605 -31 -149 -35 -334 -11
-473 17 -95 29 -125 49 -125 33 0 37 26 19 117 -25 128 -23 337 6 470 46 218
141 413 276 568 78 90 90 125 41 125 -16 0 -42 -23 -88 -77z"/>
<path d="M9460 3045 c-10 -12 -1 -28 52 -92 95 -114 142 -181 178 -252 47 -94
107 -284 120 -381 7 -47 16 -93 21 -102 20 -39 3 -287 -26 -369 -14 -38 -14
-44 0 -58 47 -48 84 94 85 326 1 337 -107 624 -333 886 -51 58 -75 69 -97 42z"/>
<path d="M3863 2943 c-10 -4 -13 -113 -13 -499 l0 -494 23 -5 c12 -3 652 -4
1422 -3 l1400 3 0 500 0 500 -1410 2 c-775 1 -1416 -1 -1422 -4z m2767 -498
l0 -425 -1355 0 -1355 0 0 425 0 425 1355 0 1355 0 0 -425z"/>
<path d="M4430 2691 c-112 -36 -189 -138 -190 -247 -1 -224 259 -348 426 -201
107 94 124 240 41 349 -49 65 -113 99 -189 104 -35 2 -74 0 -88 -5z m153 -77
c60 -31 92 -72 107 -141 27 -117 -91 -246 -210 -230 -193 26 -238 281 -65 371
39 21 127 20 168 0z"/>
<path d="M5964 2684 c-58 -21 -115 -73 -144 -130 -31 -60 -34 -169 -7 -221 51
-97 140 -153 242 -153 101 1 194 61 236 154 23 51 25 150 4 200 -21 50 -80
113 -129 138 -52 27 -148 33 -202 12z m202 -90 c118 -95 102 -265 -31 -330
-46 -22 -64 -26 -103 -20 -142 19 -219 179 -143 299 42 65 88 88 173 84 57 -2
72 -7 104 -33z"/>
<path d="M4773 1618 c-5 -7 -18 -35 -27 -61 -24 -65 -111 -156 -186 -196 -49
-27 -61 -37 -58 -54 5 -34 37 -31 109 11 l66 39 44 -59 c52 -71 135 -150 213
-202 202 -134 446 -140 656 -16 80 47 184 141 243 219 l43 58 65 -39 c70 -42
102 -46 107 -11 3 18 -7 27 -49 49 -69 34 -159 126 -187 189 -39 87 -45 93
-72 75 -20 -12 -1 -83 40 -147 l30 -48 -49 -23 c-121 -56 -371 -97 -536 -89
-164 9 -353 49 -457 97 l-26 12 35 60 c40 68 53 125 32 139 -19 12 -25 11 -36
-3z"/>
</g>
</svg>
